<?xml version="1.0" encoding="utf-8"?>
<!-- Generator: Adobe Illustrator 22.0.1, SVG Export Plug-In . SVG Version: 6.00 Build 0)  -->
<svg version="1.1" id="Capa_1" xmlns="http://www.w3.org/2000/svg" xmlns:xlink="http://www.w3.org/1999/xlink" x="0px" y="0px"
	 viewBox="0 0 347.9 236.3" style="enable-background:new 0 0 347.9 236.3;" xml:space="preserve">
<style type="text/css">
	.st0{fill:#2500FF;}
	.st1{fill:#43A6FF;}
</style>
<path class="st0" d="M93.1,192.3c-10.5,3.9-32,9.9-57,6.6c-0.4-0.1-0.7-0.2-1-0.4c-3.4-2.4-23.3-17.9-28.3-58.7
	c0,0-11.8-97.7,89.3-113.5c31.5-4.9,91.8,7.5,107.9,68c0.4,1.5-0.7,2.9-2.3,2.9h-39.3c-1,0-2-0.7-2.2-1.7c-2-7.5-13.3-37-63.6-30
	c-55.7,7.7-73.3,104.1-3.7,122.4C95.1,188.4,95.2,191.5,93.1,192.3z"/>
<path class="st1" d="M108,116h96.7c1.4,0,2.5,1.1,2.5,2.5v103.2c0,1.4-1.1,2.5-2.5,2.5h-26.5c-1.3,0-2.4-1-2.5-2.3l-1-17.9
	c-0.1-2.1-2.7-3.1-4.2-1.6c-7.6,8-26.3,24.2-54.1,26.8c-24.7,2.3-42.1-3.9-51.1-8.3c-2.2-1.1-1.6-4.4,0.8-4.7
	c13.8-1.5,43.2-6.3,64.2-21.7c21.6-15.9,29.3-32.1,31.7-38.9c0.6-1.6-0.6-3.3-2.3-3.3h-50.8c-1.3,0-2.4-1.1-2.5-2.4l-0.9-31.3
	C105.5,117.2,106.6,116,108,116z"/>
<path class="st1" d="M277.1,4.9c-35.9,0-64.9,29.1-64.9,64.9s29.1,64.9,64.9,64.9S342,105.7,342,69.9S312.9,4.9,277.1,4.9z
	 M277.1,110c-22.2,0-40.1-18-40.1-40.1c0-22.2,18-40.1,40.1-40.1s40.1,18,40.1,40.1C317.2,92,299.3,110,277.1,110z"/>
</svg>
