<?xml version="1.0" encoding="utf-8"?>
<!-- Generator: Adobe Illustrator 22.0.1, SVG Export Plug-In . SVG Version: 6.00 Build 0)  -->
<svg version="1.1" id="Capa_1" xmlns="http://www.w3.org/2000/svg" xmlns:xlink="http://www.w3.org/1999/xlink" x="0px" y="0px"
	 viewBox="0 0 117.5 116.2" style="enable-background:new 0 0 117.5 116.2;" xml:space="preserve">
<style type="text/css">
	.st0{fill:#E5C02C;}
	.st1{fill:none;stroke:#F7E05C;stroke-width:6;stroke-linecap:round;stroke-miterlimit:10;}
	.st2{fill:none;stroke:#2E2F31;stroke-width:6;stroke-linecap:round;stroke-miterlimit:10;}
	.st3{fill:#2E2F31;}
</style>
<g>
	<circle class="st0" cx="58.7" cy="58.1" r="56"/>
	<g>
		<path class="st1" d="M33,18.9c7.4-4.9,16.2-7.7,25.7-7.7"/>
		<path class="st1" d="M22.4,28.5c0.9-1.1,1.4-1.7,2.1-2.5"/>
	</g>
	<g>
		<line class="st2" x1="29.4" y1="51.5" x2="46.8" y2="51.5"/>
		<line class="st2" x1="72.7" y1="51.5" x2="90.1" y2="51.5"/>
	</g>
	<path class="st3" d="M58.8,77.6c-4.4,0-8.4,1.5-11.6,3.9c-2.4,1.8-1,5.6,2,5.6l19.2-0.1c3,0,4.3-3.8,2-5.6
		C67.1,79.1,63.1,77.6,58.8,77.6z"/>
	<path class="st3" d="M46.8,55.1c0,3.7-3,6.6-6.6,6.6c-3.7,0-6.6-3-6.6-6.6c0-3.7,3-6.6,6.6-6.6C43.8,48.5,46.8,51.5,46.8,55.1z"/>
	<path class="st3" d="M90.1,55.1c0,3.7-3,6.6-6.6,6.6c-3.7,0-6.6-3-6.6-6.6c0-3.7,3-6.6,6.6-6.6C87.1,48.5,90.1,51.5,90.1,55.1z"/>
</g>
</svg>
