<?xml version="1.0" encoding="utf-8"?>
<!-- Generator: Adobe Illustrator 22.0.1, SVG Export Plug-In . SVG Version: 6.00 Build 0)  -->
<svg version="1.1" id="Capa_1" xmlns="http://www.w3.org/2000/svg" xmlns:xlink="http://www.w3.org/1999/xlink" x="0px" y="0px"
	 viewBox="0 0 117.5 116.2" style="enable-background:new 0 0 117.5 116.2;" xml:space="preserve">
<style type="text/css">
	.st0{fill:#E5C02C;}
	.st1{fill:none;stroke:#F7E05C;stroke-width:6;stroke-linecap:round;stroke-miterlimit:10;}
	.st2{fill:none;stroke:#2E2F31;stroke-width:6;stroke-linecap:round;stroke-miterlimit:10;}
</style>
<g>
	<circle class="st0" cx="58.7" cy="58" r="56"/>
	<g>
		<path class="st1" d="M33,18.9c7.4-4.9,16.2-7.7,25.7-7.7"/>
		<path class="st1" d="M22.4,28.5c0.9-1.1,1.4-1.7,2.1-2.5"/>
	</g>
	<g>
		<path class="st2" d="M27,61.9c0-4.9,3.9-8.8,8.8-8.8c4.9,0,8.8,3.9,8.8,8.8"/>
		<path class="st2" d="M70.3,61.9c0-4.9,3.9-8.8,8.8-8.8c4.9,0,8.8,3.9,8.8,8.8"/>
	</g>
	<path class="st2" d="M74,75.4c-3.3,5.7-9.5,9.6-16.6,9.6c-7,0-13.2-3.8-16.5-9.5"/>
</g>
</svg>
