<?xml version="1.0" encoding="utf-8"?>
<!-- Generator: Adobe Illustrator 22.0.1, SVG Export Plug-In . SVG Version: 6.00 Build 0)  -->
<svg version="1.1" xmlns="http://www.w3.org/2000/svg" xmlns:xlink="http://www.w3.org/1999/xlink" x="0px" y="0px"
	 viewBox="0 0 800 166.8" style="enable-background:new 0 0 800 166.8;" xml:space="preserve">
<style type="text/css">
	.st0{fill:none;}
	.st1{fill:#FFFFFF;}
	.st2{fill:#9FBDFF;}
	.st3{fill:url(#SVGID_1_);}
	.st4{fill:url(#SVGID_2_);}
	.st5{fill:url(#SVGID_3_);}
</style>
<g id="BACKGROUND">
</g>
<g id="OBJECTS">
	
		<rect x="0.3" y="2.1" transform="matrix(-1 -1.224647e-16 1.224647e-16 -1 800 168.054)" class="st0" width="799.3" height="163.9"/>
	
		<rect x="0.3" y="-0.5" transform="matrix(-1 -1.224647e-16 1.224647e-16 -1 800 165.8948)" class="st1" width="799.3" height="166.9"/>
	<path class="st2" d="M478.9,151.2c-54-18.3-127.9-28.8-137.9-72c-7.5-30.4-23.7-58.3-51.6-79.7H0.3v166.9h508.2
		C500.4,160.3,490.6,155,478.9,151.2z"/>
	<linearGradient id="SVGID_1_" gradientUnits="userSpaceOnUse" x1="730.1027" y1="82.3171" x2="806.9261" y2="159.1405">
		<stop  offset="0" style="stop-color:#5AA2FF"/>
		<stop  offset="0.3935" style="stop-color:#6ACCFF"/>
		<stop  offset="0.7895" style="stop-color:#79F1FF"/>
		<stop  offset="1" style="stop-color:#7EFFFF"/>
	</linearGradient>
	<path class="st3" d="M786.6,33.3c-58.8,37.5-78.4,84.9-99.1,133.1h112.1V25.3C795.2,27.9,790.9,30.5,786.6,33.3z"/>
	<linearGradient id="SVGID_2_" gradientUnits="userSpaceOnUse" x1="173.913" y1="73.1349" x2="237.529" y2="136.7509">
		<stop  offset="0" style="stop-color:#5AA2FF"/>
		<stop  offset="0.3935" style="stop-color:#6ACCFF"/>
		<stop  offset="0.7895" style="stop-color:#79F1FF"/>
		<stop  offset="1" style="stop-color:#7EFFFF"/>
	</linearGradient>
	<path class="st4" d="M0.3-0.5v166.9h167.9c29-16.8,61.7-31.7,94.9-45.3c36-14.4,61.9-36.7,77.9-61.6c12.2-19.2,17.7-39.9,26.1-60
		H0.3z"/>
	<linearGradient id="SVGID_3_" gradientUnits="userSpaceOnUse" x1="19.9783" y1="-20.1503" x2="159.6567" y2="119.5281">
		<stop  offset="0" style="stop-color:#3F9CFF"/>
		<stop  offset="0.422" style="stop-color:#5ECCFF"/>
		<stop  offset="0.8" style="stop-color:#75F1FF"/>
		<stop  offset="1" style="stop-color:#7EFFFF"/>
	</linearGradient>
	<path class="st5" d="M0.3-0.5v166.9h40c27.2-13.9,56.1-26.7,85.4-38.7c44.5-17.8,76.7-45.4,96.4-76.2c10.6-16.7,17.2-34.4,23.7-52
		H0.3z"/>
</g>
</svg>
