<?xml version="1.0" encoding="utf-8"?>
<!-- Generator: Adobe Illustrator 22.0.1, SVG Export Plug-In . SVG Version: 6.00 Build 0)  -->
<svg version="1.1" id="Capa_1" xmlns="http://www.w3.org/2000/svg" xmlns:xlink="http://www.w3.org/1999/xlink" x="0px" y="0px"
	 viewBox="0 0 156 156" style="enable-background:new 0 0 156 156;" xml:space="preserve">
<style type="text/css">
	.st0{fill:#8FCBF1;}
	.st1{fill:#FFFFFF;}
</style>
<circle class="st0" cx="78" cy="78" r="76"/>
<g>
	<path class="st1" d="M78,38.9c-15.9,0-28.8,12.9-28.8,28.8c0,4.1,0.8,8.1,2.5,11.8c7.2,15.7,21,32.4,25.1,37.1
		c0.3,0.4,0.7,0.6,1.2,0.6c0.5,0,0.9-0.2,1.2-0.6c4.1-4.7,17.9-21.3,25-37.1c1.7-3.7,2.5-7.6,2.5-11.8C106.8,51.8,93.9,38.9,78,38.9
		L78,38.9z M78,82.6c-8.2,0-14.9-6.7-14.9-14.9c0-8.2,6.7-14.9,14.9-14.9c8.2,0,15,6.7,15,14.9C92.9,75.9,86.2,82.6,78,82.6L78,82.6
		z M78,82.6"/>
</g>
</svg>
