<?xml version="1.0" encoding="utf-8"?>
<!-- Generator: Adobe Illustrator 22.0.1, SVG Export Plug-In . SVG Version: 6.00 Build 0)  -->
<svg version="1.1" id="Capa_1" xmlns="http://www.w3.org/2000/svg" xmlns:xlink="http://www.w3.org/1999/xlink" x="0px" y="0px"
	 viewBox="0 0 484 768" style="enable-background:new 0 0 484 768;" xml:space="preserve">
<style type="text/css">
	.st0{fill:#26AEF6;}
	.st1{fill:url(#SVGID_1_);}
	.st2{fill:url(#SVGID_2_);}
	.st3{fill:url(#SVGID_3_);}
</style>
<rect class="st0" width="484" height="768"/>
<g>
	<linearGradient id="SVGID_1_" gradientUnits="userSpaceOnUse" x1="202.6669" y1="137.965" x2="434.8313" y2="-51.6903">
		<stop  offset="0" style="stop-color:#76C6FF"/>
		<stop  offset="0.3283" style="stop-color:#57BDFC"/>
		<stop  offset="0.7657" style="stop-color:#34B2F8"/>
		<stop  offset="1" style="stop-color:#26AEF6"/>
	</linearGradient>
	<path class="st1" d="M364.6,187.8L484,41.1V0H147l152.9,187.8C317.7,209.8,346.7,209.8,364.6,187.8z"/>
</g>
<linearGradient id="SVGID_2_" gradientUnits="userSpaceOnUse" x1="0" y1="384" x2="484" y2="384">
	<stop  offset="0" style="stop-color:#76C6FF"/>
	<stop  offset="0.3283" style="stop-color:#57BDFC"/>
	<stop  offset="0.7657" style="stop-color:#34B2F8"/>
	<stop  offset="1" style="stop-color:#26AEF6"/>
</linearGradient>
<path class="st2" d="M307.8,525.3L484,757.7V572L50.4,0H0v768h11.9l227.1-242.7C258.1,500.2,288.9,500.2,307.8,525.3z"/>
<linearGradient id="SVGID_3_" gradientUnits="userSpaceOnUse" x1="359.8976" y1="920.1569" x2="134.8734" y2="603.9297">
	<stop  offset="0" style="stop-color:#76C6FF"/>
	<stop  offset="0.3283" style="stop-color:#57BDFC"/>
	<stop  offset="0.7657" style="stop-color:#34B2F8"/>
	<stop  offset="1" style="stop-color:#26AEF6"/>
</linearGradient>
<path class="st3" d="M484,757.7L307.8,525.3c-19-25.1-49.8-25.1-68.8,0L11.9,768H484V757.7z"/>
</svg>
