<?xml version="1.0" encoding="utf-8"?>
<!-- Generator: Adobe Illustrator 22.0.1, SVG Export Plug-In . SVG Version: 6.00 Build 0)  -->
<svg version="1.1" id="Capa_1" xmlns="http://www.w3.org/2000/svg" xmlns:xlink="http://www.w3.org/1999/xlink" x="0px" y="0px"
	 viewBox="0 0 117.5 116.2" style="enable-background:new 0 0 117.5 116.2;" xml:space="preserve">
<style type="text/css">
	.st0{fill:#E5C02C;}
	.st1{fill:none;stroke:#F7E05C;stroke-width:6;stroke-linecap:round;stroke-miterlimit:10;}
	.st2{fill:#F2F2F2;}
	.st3{fill:#E1E1E2;}
	.st4{fill:none;stroke:#2E2F31;stroke-width:6;stroke-linecap:round;stroke-miterlimit:10;}
</style>
<g>
	<circle class="st0" cx="58.7" cy="58.1" r="56"/>
	<g>
		<path class="st1" d="M33,18.9c7.4-4.9,16.2-7.7,25.7-7.7"/>
		<path class="st1" d="M22.4,28.5c0.9-1.1,1.4-1.7,2.1-2.5"/>
	</g>
	<path class="st2" d="M35.1,73.4c-2.8,0-4.4,3.3-2.6,5.5c6.2,7.8,15.7,12.7,26.3,12.7c10.7,0,20.2-5,26.3-12.7
		c1.8-2.2,0.2-5.5-2.6-5.5H35.1z"/>
	<path class="st3" d="M85.8,77.2c0.2-1.9-1.2-3.8-3.4-3.8H35.1c-2.2,0-3.6,1.9-3.4,3.8H85.8z"/>
	<g>
		<path class="st4" d="M28.3,61.9c0-4.9,3.9-8.8,8.8-8.8c4.9,0,8.8,3.9,8.8,8.8"/>
		<path class="st4" d="M71.6,61.9c0-4.9,3.9-8.8,8.8-8.8c4.9,0,8.8,3.9,8.8,8.8"/>
	</g>
</g>
</svg>
